<svg width="30" height="23" viewBox="0 0 30 23" fill="none" xmlns="http://www.w3.org/2000/svg">
<path d="M10.5001 12H24.5001C24.7781 12 25.0001 12.223 25.0001 12.5C25.0001 12.777 24.7781 13 24.5001 13H10.5001C10.2241 13 10.0001 12.777 10.0001 12.5C10.0001 12.223 10.2241 12 10.5001 12ZM9.50005 8H25.5001C25.7781 8 26.0001 8.223 26.0001 8.5C26.0001 8.777 25.7781 9 25.5001 9H9.50005C9.22405 9 9.00005 8.777 9.00005 8.5C9.00005 8.223 9.22405 8 9.50005 8ZM0.500052 0C-0.152948 0 -0.169948 1 0.500052 1H4.10005C4.17805 1.346 4.74005 3.81 5.41205 6.736C6.12905 9.862 6.86405 14.056 7.01805 14.629C7.15005 15.123 7.27305 15.684 7.63805 16.173C8.00005 16.661 8.63805 16.999 9.50005 16.999H25.5001C26.3601 16.999 27.0001 16.661 27.3631 16.173C27.7271 15.683 27.8501 15.123 27.9831 14.628C28.2481 13.635 29.6031 7.684 29.8731 6.676C30.0251 6.11 30.0751 5.52 29.8951 4.986C29.7151 4.452 29.1751 3.998 28.5001 3.998H8.50005C7.84705 3.998 7.84005 4.998 8.50005 4.998H28.5001C28.8251 4.998 28.8661 5.068 28.9471 5.308C29.0271 5.546 29.0231 5.982 28.9071 6.416C28.6401 7.408 27.2871 13.361 27.0171 14.369C26.8821 14.875 26.7551 15.314 26.5611 15.575C26.3671 15.837 26.1411 15.999 25.5011 15.999H9.50105C8.86105 15.999 8.63505 15.837 8.44105 15.575C8.24605 15.315 8.11905 14.875 7.98305 14.37C7.86905 13.944 7.10305 9.638 6.38805 6.514C5.67105 3.389 4.98805 0.389 4.98805 0.389C4.93805 0.16 4.73505 0 4.50005 0H0.500052ZM23.5001 18C22.1271 18 21.0001 19.125 21.0001 20.5C21.0001 21.875 22.1271 23 23.5001 23C24.8761 23 26.0001 21.875 26.0001 20.5C26.0001 19.125 24.8771 18 23.5001 18ZM23.5001 19C24.3361 19 25.0001 19.666 25.0001 20.5C25.0001 21.334 24.3361 22 23.5001 22C22.6671 22 22.0001 21.334 22.0001 20.5C22.0001 19.666 22.6671 19 23.5001 19ZM11.5001 18C10.1281 18 9.00005 19.125 9.00005 20.5C9.00005 21.875 10.1271 23 11.5001 23C12.8761 23 14.0001 21.875 14.0001 20.5C14.0001 19.125 12.8771 18 11.5001 18ZM11.5001 19C12.3361 19 13.0001 19.666 13.0001 20.5C13.0001 21.334 12.3361 22 11.5001 22C10.6671 22 10.0001 21.334 10.0001 20.5C10.0001 19.666 10.6671 19 11.5001 19Z" fill="white"/>
</svg>
