<svg width="612" height="612" viewBox="0 0 612 612" fill="none" xmlns="http://www.w3.org/2000/svg">
<path d="M559.959 383.188L460.814 332.258C436.544 319.75 405.161 324.015 385.042 342.509L373.471 353.104C362.245 363.432 344.745 365.823 331.148 358.785C297.335 341.381 270.292 314.339 252.869 280.602C245.736 266.755 248.012 249.772 258.587 238.297L269.202 226.746C280.581 214.372 286.835 198.307 286.835 181.535C286.835 170.978 284.272 160.421 279.434 151.011L228.447 51.944C211.942 19.928 179.333 0 143.359 0C122.207 0 102.164 6.771 85.4099 19.565L55.2699 42.553C7.93589 78.623 -11.5151 140.913 6.82589 197.542C67.9109 385.924 215.958 537.853 402.847 603.968C417.937 609.304 433.715 612 449.723 612C487.151 612 523.641 596.796 549.862 570.231L584.383 535.328C602.207 517.312 611.999 493.482 611.999 468.219C611.999 432.244 592.051 399.674 559.959 383.188ZM543.531 495.051L509.03 529.954C486.883 552.368 451.807 560.458 421.972 549.901C251.817 489.734 117.024 351.384 61.4089 179.871C50.5649 146.345 62.0589 109.491 90.0769 88.128L120.237 65.121C126.912 60.034 134.906 57.337 143.359 57.337C157.741 57.337 170.803 65.312 177.401 78.183L228.369 177.25C229.057 178.589 229.421 180.042 229.421 181.553C229.421 184.613 228.044 186.736 226.878 187.998L216.283 199.53C189.546 228.6 183.751 271.727 201.863 306.86C224.737 351.267 260.385 386.84 304.851 409.752C339.372 427.538 383.704 421.553 412.257 395.351L423.847 384.718C425.721 382.996 430.578 381.198 434.595 383.245L533.739 434.175C546.63 440.792 554.624 453.835 554.624 468.218C554.604 478.297 550.665 487.821 543.531 495.051Z" fill="white"/>
</svg>
