<svg width="1" height="1" viewBox="0 0 1 1" fill="none" xmlns="http://www.w3.org/2000/svg">
<path fill-rule="evenodd" clip-rule="evenodd" d="M0.497922 0.562724C0.445 0.601896 0.609562 0.433614 0.562734 0.497583C0.563906 0.497489 0.561734 0.501036 0.554453 0.509927C0.554453 0.509927 0.679515 0.634146 0.740906 0.697364C0.762218 0.720411 0.723765 0.766411 0.69764 0.742396C0.642047 0.688458 0.5105 0.554411 0.510297 0.554193L0.497922 0.562724V0.562724Z" fill="white"/>
<path d="M0.314342 0.625562C0.394811 0.624781 0.474467 0.591453 0.531748 0.534844C0.599779 0.467609 0.634811 0.368141 0.622592 0.273172C0.601654 0.110437 0.467873 0 0.312342 0C0.19417 0 0.0793262 0.0739219 0.0289512 0.181109C-0.00961132 0.263172 -0.00968945 0.36225 0.0289512 0.444453C0.0789668 0.550891 0.191936 0.624422 0.310326 0.625562C0.31167 0.625562 0.313014 0.625562 0.314342 0.625562V0.625562ZM0.310654 0.573422C0.190482 0.572266 0.0783574 0.479328 0.0560606 0.360172C0.0403418 0.276172 0.0700137 0.185266 0.131826 0.125609C0.203982 0.0559375 0.317404 0.0326094 0.411717 0.0720937C0.496092 0.107422 0.559248 0.189453 0.570889 0.279828C0.580857 0.357297 0.553061 0.438484 0.498436 0.494406C0.450514 0.543469 0.383311 0.57275 0.314014 0.573422C0.312889 0.573422 0.311779 0.573422 0.310654 0.573422V0.573422Z" fill="white"/>
</svg>
