<svg width="1024" height="950" viewBox="0 0 1024 950" fill="none" xmlns="http://www.w3.org/2000/svg">
<path fill-rule="evenodd" clip-rule="evenodd" d="M260.88 415.129C254.482 426.4 249.451 435.344 244.344 444.243C217.07 491.772 189.64 539.211 162.642 586.898C158.76 593.756 154.49 596.498 146.475 596.414C106.95 595.998 67.4191 596.281 27.8901 596.198C7.27208 596.155 0.102075 589.052 0.0640754 568.616C-0.0159246 526.424 -0.0309246 484.23 0.0690754 442.038C0.116075 422.166 7.25708 415.158 27.2291 415.147C100.914 415.107 174.599 415.129 248.283 415.129C251.677 415.129 255.071 415.129 260.88 415.129Z" fill="white"/>
<path fill-rule="evenodd" clip-rule="evenodd" d="M673.294 595.465C580.308 595.465 487.692 595.465 393.739 595.465C395.58 591.668 396.845 588.61 398.481 585.759C429.379 531.925 460.485 478.21 491.06 424.197C495.076 417.1 499.526 414.828 507.328 414.965C532.26 415.406 557.214 414.853 582.144 415.42C586.05 415.507 591.896 418.458 593.427 421.702C620.111 478.125 646.259 534.799 672.489 591.433C672.938 592.401 672.934 593.581 673.294 595.465Z" fill="white"/>
<path fill-rule="evenodd" clip-rule="evenodd" d="M794.753 415.129C838.193 415.129 879.188 415.127 920.186 415.129C946.64 415.129 973.094 415.014 999.548 415.176C1016.38 415.28 1023.9 422.962 1023.93 440.009C1024.03 483.691 1024.02 527.375 1023.94 571.06C1023.91 587.973 1016.37 595.998 999.661 596.127C965.157 596.392 930.651 596.358 896.147 595.989C892.785 595.953 887.798 593.603 886.354 590.862C861.025 542.805 836.145 494.514 811.139 446.287C806.075 436.524 800.904 426.816 794.753 415.129Z" fill="white"/>
<path fill-rule="evenodd" clip-rule="evenodd" d="M480.173 18.9459C480.354 15.4439 480.203 12.7109 480.685 10.0969C482.449 0.501878 488.491 -2.30412 496.16 3.52988C501.283 7.42588 506.247 12.0659 509.83 17.3569C526.799 42.4089 544.063 67.3189 559.787 93.1509C659.645 257.178 754.037 424.286 841.349 595.351C850.264 612.818 849.124 626.849 834.532 640.018C817.79 655.126 799.124 667.135 774.589 662.144C763.307 659.85 755.15 653.308 749.778 643.357C734.682 615.39 717.894 588.16 705.03 559.196C636.171 404.184 568.019 248.856 500.444 93.2799C491.676 73.0929 487.571 50.8709 481.518 29.5339C480.487 25.8959 480.532 21.9569 480.173 18.9459Z" fill="white"/>
<path fill-rule="evenodd" clip-rule="evenodd" d="M993.253 949.5C982.142 943.378 971.337 937.125 960.256 931.401C948.031 925.093 935.259 919.801 923.264 913.101C908.08 904.621 897.269 891.745 890.598 875.695C881.946 854.883 890.047 833.288 910.303 823.304C916.434 820.284 922.972 817.727 929.61 816.159C951.133 811.078 968.619 817.433 977.354 837.723C985.088 855.684 990.021 875.401 992.708 894.821C995.247 913.173 993.253 932.149 993.253 949.5Z" fill="white"/>
<path fill-rule="evenodd" clip-rule="evenodd" d="M916.18 755.668C915.419 780.078 873.507 806.643 854.137 797.253C848.953 794.737 844.216 789.934 840.955 785.058C829.032 767.241 817.67 749.043 806.386 730.811C796.6 714.999 800.129 702.437 816.559 693.693C827.034 688.117 837.535 682.562 848.236 677.449C862.558 670.604 876.015 674.448 883.624 688.219C893.983 706.971 903.707 726.086 913.34 745.225C915.331 749.183 915.731 753.939 916.18 755.668Z" fill="white"/>
<path fill-rule="evenodd" clip-rule="evenodd" d="M510.768 299.977C509.903 302.278 508.696 307.565 506.117 312.064C412.211 475.864 318.202 639.605 224.131 803.309C214.935 819.31 202.663 822.491 186.463 813.33C167.792 802.771 149.178 792.099 130.681 781.235C115.752 772.468 112.296 760.298 120.867 745.363C215.031 581.269 309.274 417.221 403.587 253.214C412.609 237.525 424.471 234.452 440.332 243.336C459.047 253.819 477.561 264.662 496.241 275.208C504.83 280.058 510.585 286.587 510.768 299.977Z" fill="white"/>
<path fill-rule="evenodd" clip-rule="evenodd" d="M73.8149 914.956C77.6849 881.041 80.9199 849.448 85.0609 817.973C86.7389 805.216 96.4959 800.854 108.036 807.212C128.808 818.652 149.419 830.414 169.745 842.625C181.344 849.597 181.763 859.529 170.695 867.296C144.382 885.761 117.765 903.804 90.9679 921.56C87.6439 923.766 81.8879 924.763 78.3689 923.419C75.6649 922.388 74.7069 916.788 73.8149 914.956Z" fill="white"/>
</svg>
