<svg width="197" height="222" viewBox="0 0 197 222" fill="none" xmlns="http://www.w3.org/2000/svg">
<path d="M189.653 98.9247L21.858 2.87782C19.7109 1.63258 17.2715 0.980089 14.7894 0.987117C12.3073 0.994145 9.87161 1.66044 7.73155 2.91782C5.62417 4.11648 3.87311 5.85354 2.65756 7.95122C1.44201 10.0489 0.805633 12.4319 0.81355 14.8563V207.143C0.805633 209.568 1.44201 211.951 2.65756 214.048C3.87311 216.146 5.62417 217.883 7.73155 219.082C9.87163 220.339 12.3073 221.005 14.7894 221.012C17.2715 221.02 19.7109 220.367 21.858 219.122L189.653 123.075C191.82 121.89 193.629 120.144 194.889 118.019C196.149 115.895 196.814 113.47 196.814 111C196.814 108.53 196.149 106.105 194.889 103.981C193.629 101.856 191.82 100.11 189.653 98.9247V98.9247ZM12.8136 200.701V21.2987L102.515 111L12.8136 200.701ZM111 119.485L133.122 141.607L29.651 200.834L111 119.485ZM29.651 21.1654L133.122 80.393L111 102.515L29.651 21.1654ZM183.831 112.582L183.734 112.637L143.915 135.429L119.485 111L143.915 86.5707L183.734 109.363L183.831 109.417C184.126 109.563 184.374 109.789 184.548 110.068C184.722 110.348 184.814 110.671 184.814 111C184.814 111.329 184.722 111.652 184.548 111.931C184.374 112.211 184.126 112.436 183.831 112.582V112.582Z" fill="white"/>
</svg>
