<svg width="549" height="314" viewBox="0 0 549 314" fill="none" xmlns="http://www.w3.org/2000/svg">
<path d="M545.451 283.298C544.787 281.867 544.168 280.68 543.593 279.729C534.079 262.594 515.898 241.562 489.061 216.627L488.494 216.056L488.21 215.776L487.923 215.489H487.635C475.455 203.878 467.742 196.071 464.512 192.074C458.602 184.46 457.278 176.753 460.508 168.944C462.79 163.044 471.362 150.584 486.204 131.547C494.011 121.458 500.194 113.372 504.76 107.28C537.691 63.4999 551.968 35.5239 547.588 23.3409L545.887 20.4939C544.744 18.7799 541.794 17.2119 537.041 15.7819C532.277 14.3549 526.188 14.1189 518.763 15.0699L436.539 15.6379C435.207 15.1659 433.305 15.2099 430.827 15.7819C428.352 16.3539 427.114 16.6409 427.114 16.6409L425.683 17.3559L424.547 18.2149C423.595 18.7829 422.548 19.7819 421.405 21.2099C420.268 22.6329 419.317 24.3029 418.557 26.2059C409.605 49.2369 399.427 70.6499 388.004 90.4439C380.961 102.247 374.493 112.476 368.586 121.137C362.687 129.795 357.738 136.174 353.744 140.263C349.744 144.356 346.134 147.635 342.892 150.112C339.655 152.59 337.184 153.637 335.473 153.254C333.758 152.871 332.143 152.491 330.614 152.111C327.951 150.397 325.809 148.066 324.194 145.116C322.572 142.166 321.48 138.453 320.909 133.98C320.341 129.504 320.005 125.654 319.909 122.417C319.82 119.184 319.861 114.611 320.054 108.711C320.252 102.808 320.341 98.8139 320.341 96.7199C320.341 89.4859 320.482 81.6349 320.765 73.1649C321.053 64.6949 321.286 57.9839 321.481 53.0399C321.675 48.0909 321.765 42.8549 321.765 37.3349C321.765 31.8149 321.429 27.4859 320.765 24.3439C320.109 21.2059 319.102 18.1599 317.775 15.2069C316.44 12.2569 314.486 9.97492 311.922 8.35492C309.353 6.73692 306.159 5.45291 302.358 4.49891C292.269 2.21591 279.422 0.980915 263.811 0.788915C228.41 0.408915 205.663 2.69491 195.575 7.64391C191.578 9.73491 187.961 12.5919 184.727 16.2059C181.3 20.3949 180.822 22.6809 183.296 23.0569C194.718 24.7679 202.804 28.8609 207.563 35.3319L209.278 38.7609C210.612 41.2349 211.944 45.6149 213.277 51.8949C214.608 58.1749 215.467 65.1219 215.845 72.7319C216.795 86.6289 216.795 98.5249 215.845 108.421C214.892 118.321 213.992 126.028 213.133 131.548C212.274 137.068 210.99 141.541 209.278 144.966C207.563 148.392 206.422 150.486 205.85 151.246C205.279 152.006 204.803 152.485 204.425 152.673C201.951 153.621 199.378 154.104 196.715 154.104C194.048 154.104 190.814 152.77 187.008 150.104C183.203 147.438 179.254 143.776 175.161 139.112C171.068 134.447 166.452 127.928 161.311 119.554C156.174 111.18 150.844 101.283 145.324 89.8629L140.757 81.5809C137.902 76.2529 134.002 68.4949 129.053 58.3139C124.101 48.1289 119.724 38.2769 115.919 28.7599C114.398 24.7629 112.113 21.7199 109.068 19.6259L107.639 18.7669C106.689 18.0069 105.164 17.1999 103.072 16.3399C100.977 15.4809 98.791 14.8649 96.505 14.4859L18.276 15.0539C10.282 15.0539 4.858 16.8649 2.002 20.4819L0.859 22.1929C0.288 23.1459 0 24.6679 0 26.7629C0 28.8569 0.571 31.4269 1.714 34.4699C13.134 61.3099 25.553 87.1949 38.971 112.129C52.389 137.063 64.049 157.148 73.944 172.366C83.841 187.595 93.929 201.968 104.208 215.478C114.487 228.993 121.291 237.654 124.62 241.459C127.953 245.271 130.571 248.121 132.474 250.024L139.613 256.875C144.181 261.444 150.889 266.916 159.74 273.291C168.593 279.67 178.394 285.95 189.148 292.141C199.904 298.322 212.417 303.366 226.694 307.267C240.969 311.172 254.863 312.739 268.378 311.983H301.212C307.871 311.408 312.916 309.314 316.345 305.7L317.481 304.269C318.245 303.133 318.96 301.368 319.62 298.993C320.288 296.614 320.62 293.993 320.62 291.142C320.425 282.959 321.048 275.584 322.472 269.018C323.895 262.454 325.517 257.505 327.331 254.172C329.144 250.842 331.19 248.032 333.467 245.754C335.749 243.471 337.375 242.088 338.329 241.612C339.277 241.133 340.034 240.808 340.605 240.613C345.173 239.091 350.549 240.565 356.741 245.042C362.928 249.515 368.731 255.038 374.159 261.602C379.584 268.172 386.102 275.543 393.714 283.726C401.331 291.912 407.991 297.997 413.699 302L419.407 305.426C423.219 307.712 428.168 309.806 434.26 311.709C440.341 313.611 445.669 314.087 450.244 313.136L523.331 311.996C530.56 311.996 536.185 310.799 540.175 308.424C544.173 306.045 546.548 303.424 547.314 300.573C548.078 297.719 548.119 294.481 547.459 290.861C546.782 287.25 546.115 284.725 545.451 283.298Z" fill="white"/>
</svg>
